<svg width="27" height="26" viewBox="0 0 27 26" fill="none" xmlns="http://www.w3.org/2000/svg">
<path d="M16.7152 -9.19438e-07C14.824 -0.000973175 12.9712 0.534666 11.3722 1.5447C9.77327 2.55473 8.49368 3.99769 7.6821 5.70598C6.87053 7.41426 6.56029 9.31775 6.78741 11.1953C7.01454 13.0729 7.76972 14.8475 8.96522 16.313L0.996216 24.281L2.43422 25.719L10.4032 17.75C11.6448 18.7624 13.1114 19.4617 14.6796 19.789C16.2477 20.1164 17.8716 20.0621 19.4145 19.6309C20.9574 19.1997 22.374 18.4042 23.5453 17.3112C24.7165 16.2183 25.6081 14.8599 26.1448 13.3505C26.6816 11.8411 26.8478 10.2249 26.6296 8.6378C26.4114 7.05074 25.8151 5.53934 24.8909 4.23083C23.9666 2.92232 22.7416 1.855 21.3188 1.11873C19.896 0.382457 18.3172 -0.00121984 16.7152 -9.19438e-07ZM16.7152 2C18.2975 2 19.8442 2.46919 21.1598 3.34824C22.4754 4.22729 23.5008 5.47672 24.1063 6.93853C24.7118 8.40034 24.8702 10.0089 24.5615 11.5607C24.2528 13.1126 23.4909 14.538 22.3721 15.6569C21.2533 16.7757 19.8278 17.5376 18.2759 17.8463C16.7241 18.155 15.1156 17.9965 13.6537 17.391C12.1919 16.7855 10.9425 15.7602 10.0635 14.4446C9.18441 13.129 8.71522 11.5822 8.71522 10C8.71324 8.94887 8.91882 7.90769 9.32015 6.93619C9.72149 5.9647 10.3107 5.082 11.054 4.33874C11.7972 3.59547 12.6799 3.00627 13.6514 2.60494C14.6229 2.2036 15.6641 1.99802 16.7152 2Z" fill="white"/>
</svg>
